<svg width="120" height="93" viewBox="0 0 120 93" fill="none" xmlns="http://www.w3.org/2000/svg">
<g clip-path="url(#clip0_131_214)">
<path d="M21.8157 92.5377V86.3824C21.8157 84.0224 20.3747 82.4839 17.9049 82.4839C16.6702 82.4839 15.3324 82.8942 14.4061 84.228C13.6861 83.0994 12.6572 82.4839 11.1136 82.4839C10.0843 82.4839 9.05582 82.7914 8.23223 83.92V82.689H6.07129V92.5377H8.23223V87.1002C8.23223 85.3566 9.15848 84.5355 10.5994 84.5355C12.0394 84.5355 12.7604 85.459 12.7604 87.1002V92.5377H14.9213V87.1002C14.9213 85.3566 15.9497 84.5355 17.2875 84.5355C18.7285 84.5355 19.4485 85.459 19.4485 87.1002V92.5377H21.8157ZM53.8177 82.689H50.3194V79.714H48.1585V82.689H46.2033V84.6378H48.158V89.1523C48.158 91.4096 49.0843 92.7429 51.5541 92.7429C52.4804 92.7429 53.5088 92.4354 54.2297 92.025L53.6119 90.1781C52.9946 90.5884 52.2746 90.6913 51.7599 90.6913C50.731 90.6913 50.3194 90.0758 50.3194 89.0495V84.6378H53.8177V82.689ZM72.1346 82.4834C70.8999 82.4834 70.0768 83.0994 69.5621 83.92V82.689H67.4011V92.5377H69.5621V86.9979C69.5621 85.3566 70.2821 84.4332 71.6199 84.4332C72.0314 84.4332 72.5461 84.536 72.9577 84.6383L73.575 82.5867C73.1635 82.4839 72.5461 82.4839 72.1346 82.4839V82.4834ZM44.4539 83.5097C43.4246 82.7914 41.9841 82.4839 40.4405 82.4839C37.9711 82.4839 36.3249 83.7149 36.3249 85.6641C36.3249 87.3059 37.5596 88.2289 39.7205 88.5368L40.7494 88.6396C41.8814 88.8443 42.4988 89.1523 42.4988 89.6655C42.4988 90.3833 41.6757 90.8964 40.2347 90.8964C38.7943 90.8964 37.6622 90.3833 36.9418 89.8706L35.9129 91.5119C37.0449 92.3325 38.5885 92.7429 40.1316 92.7429C43.013 92.7429 44.6597 91.4096 44.6597 89.5626C44.6597 87.8185 43.3219 86.8951 41.2636 86.5876L40.2347 86.4848C39.3085 86.3819 38.5885 86.1773 38.5885 85.5618C38.5885 84.8435 39.3085 84.4332 40.4405 84.4332C41.6757 84.4332 42.9104 84.9458 43.5277 85.2538L44.4539 83.5097ZM101.873 82.4839C100.638 82.4839 99.8152 83.0994 99.3005 83.92V82.689H97.1396V92.5377H99.3005V86.9979C99.3005 85.3566 100.021 84.4332 101.358 84.4332C101.77 84.4332 102.285 84.536 102.697 84.6383L103.314 82.5867C102.902 82.4839 102.285 82.4839 101.873 82.4839ZM74.2955 87.6134C74.2955 90.5884 76.3533 92.7429 79.5436 92.7429C80.9841 92.7429 82.013 92.4354 83.0419 91.6147L82.013 89.8706C81.1899 90.4861 80.3668 90.7936 79.4405 90.7936C77.6911 90.7936 76.4564 89.5626 76.4564 87.6134C76.4564 85.7669 77.6911 84.5355 79.4405 84.4332C80.3668 84.4332 81.1899 84.7407 82.013 85.3566L83.0419 83.6125C82.013 82.7914 80.9841 82.4839 79.5436 82.4839C76.3533 82.4839 74.2955 84.6383 74.2955 87.6134ZM94.2586 87.6134V82.689H92.0977V83.92C91.3772 82.997 90.3483 82.4839 89.0105 82.4839C86.2322 82.4839 84.0713 84.6383 84.0713 87.6134C84.0713 90.5884 86.2322 92.7429 89.0105 92.7429C90.451 92.7429 91.4804 92.2302 92.0977 91.3067V92.5377H94.2586V87.6134ZM86.3349 87.6134C86.3349 85.8693 87.4669 84.4332 89.3189 84.4332C91.0683 84.4332 92.3035 85.7669 92.3035 87.6134C92.3035 89.3575 91.0683 90.7936 89.3189 90.7936C87.4669 90.6908 86.3349 89.3575 86.3349 87.6134ZM60.5068 82.4839C57.6254 82.4839 55.5671 84.5355 55.5671 87.6134C55.5671 90.6913 57.6249 92.7429 60.6094 92.7429C62.0499 92.7429 63.4908 92.3325 64.6229 91.4096L63.5935 89.8706C62.7704 90.4861 61.7414 90.8964 60.7125 90.8964C59.3747 90.8964 58.0369 90.2809 57.728 88.5364H65.0344V87.7162C65.1375 84.5355 63.285 82.4839 60.5063 82.4839H60.5068ZM60.5068 84.3303C61.8441 84.3303 62.7708 85.1514 62.9761 86.6904H57.8311C58.0369 85.3566 58.9632 84.3303 60.5068 84.3303ZM114.119 87.6134V78.7905H111.958V83.92C111.237 82.997 110.208 82.4839 108.871 82.4839C106.092 82.4839 103.931 84.6383 103.931 87.6134C103.931 90.5884 106.092 92.7429 108.871 92.7429C110.311 92.7429 111.34 92.2302 111.958 91.3067V92.5377H114.119V87.6134ZM106.195 87.6134C106.195 85.8693 107.327 84.4332 109.179 84.4332C110.929 84.4332 112.163 85.7669 112.163 87.6134C112.163 89.3575 110.929 90.7936 109.179 90.7936C107.327 90.6908 106.195 89.3575 106.195 87.6134ZM33.9577 87.6134V82.689H31.7968V83.92C31.0763 82.997 30.0474 82.4839 28.7096 82.4839C25.9313 82.4839 23.7704 84.6383 23.7704 87.6134C23.7704 90.5884 25.9313 92.7429 28.7096 92.7429C30.1505 92.7429 31.1794 92.2302 31.7968 91.3067V92.5377H33.9577V87.6134ZM25.9313 87.6134C25.9313 85.8693 27.0633 84.4332 28.9154 84.4332C30.6647 84.4332 31.8999 85.7669 31.8999 87.6134C31.8999 89.3575 30.6647 90.7936 28.9154 90.7936C27.0633 90.6908 25.9313 89.3575 25.9313 87.6134Z" fill="white"/>
<path d="M43.7334 7.89941H76.1475V65.9665H43.7334V7.89941Z" fill="#FF5F00"/>
<path d="M45.7917 36.9332C45.7917 25.1352 51.3483 14.6706 59.8889 7.89939C53.6123 2.97507 45.6891 0 37.0453 0C16.567 0 0 16.5171 0 36.9332C0 57.3488 16.567 73.8663 37.0448 73.8663C45.6886 73.8663 53.6119 70.8912 59.8889 65.9664C51.3483 59.298 45.7917 48.7311 45.7917 36.9332Z" fill="#EB001B"/>
<path d="M119.881 36.9332C119.881 57.3488 103.314 73.8663 82.8362 73.8663C74.1925 73.8663 66.2692 70.8912 59.9922 65.9664C68.6359 59.1957 74.0898 48.7311 74.0898 36.9332C74.0898 25.1352 68.5328 14.6706 59.9922 7.89939C66.2688 2.97507 74.1925 0 82.8362 0C103.314 0 119.882 16.6199 119.882 36.9332H119.881Z" fill="#F79E1B"/>
</g>
<defs>
<clipPath id="clip0_131_214">
<rect width="120" height="93" fill="white"/>
</clipPath>
</defs>
</svg>
