<svg width="108" height="68" viewBox="0 0 108 68" fill="none" xmlns="http://www.w3.org/2000/svg">
<path d="M4.32 0.0878906C1.9346 0.0878906 0 2.02195 0 4.40789V63.5919C0 65.9777 1.93558 67.9119 4.32 67.9119H103.68C106.065 67.9119 108 65.9778 108 63.5919V4.40789C108 2.02206 106.064 0.0878906 103.68 0.0878906H4.32ZM64.503 20.3007C67.1315 20.3007 69.238 20.8813 70.5814 21.4212L69.6634 27.1959L69.0558 26.8887C67.8045 26.3488 66.1971 25.8293 63.9799 25.8661C61.3256 25.8661 60.0987 27.0501 60.0987 28.1578C60.0832 29.406 61.5324 30.2292 63.9022 31.4619C67.8136 33.3638 69.6214 35.6698 69.596 38.7012C69.5433 44.2327 64.917 47.807 57.7902 47.807C54.7496 47.7736 51.8203 47.1299 50.2369 46.3861L51.1887 40.4191L52.0628 40.8444C54.2894 41.8393 55.7312 42.2417 58.4449 42.2417C60.3935 42.2417 62.485 41.4258 62.5017 39.6395C62.5143 38.4731 61.6274 37.6415 58.9882 36.3354C56.4165 35.0606 53.0072 32.9251 53.045 29.096C53.0851 23.9163 57.8038 20.3007 64.503 20.3007ZM9.5512 21.1479H20.4963C21.9702 21.2036 23.1602 21.6782 23.571 23.2775L25.9302 35.4545C25.9305 35.4556 25.9297 35.46 25.9302 35.4612L26.6388 39.1097L33.2842 21.1479H40.473L29.7877 47.4392L22.6057 47.4459L16.8885 26.2306C20.2903 28.0328 23.1864 30.1179 24.8637 32.9874C24.4312 32.0794 23.8614 31.0545 23.1323 30.0444C22.2832 28.8681 20.4495 27.3493 19.683 26.7031C17.0122 24.4516 13.385 22.6332 9.46685 21.671L9.5512 21.1479ZM43.3317 21.1782H50.3618L45.964 47.429H38.934L43.3317 21.1782ZM83.0385 21.1782H88.3643L93.9398 47.429H87.5475C87.5475 47.429 86.9133 44.4132 86.7072 43.4937C85.7024 43.4937 78.6755 43.4837 77.8848 43.4837C77.6173 44.1943 76.4337 47.4289 76.4337 47.4289H69.201L79.4307 23.3585C80.1549 21.648 81.3895 21.1782 83.0385 21.1782ZM83.5617 28.2387C83.2157 29.2152 82.6134 30.792 82.6537 30.7227C82.6537 30.7227 80.4897 36.4943 79.9235 37.9925L85.6102 37.9891C85.0819 35.4859 84.5532 32.9829 84.024 30.48L83.5617 28.239V28.2387Z" fill="white"/>
</svg>
